<svg xmlns:dc="http://purl.org/dc/elements/1.1/" xmlns:cc="http://creativecommons.org/ns#" xmlns:rdf="http://www.w3.org/1999/02/22-rdf-syntax-ns#" xmlns:svg="http://www.w3.org/2000/svg" xmlns="http://www.w3.org/2000/svg" xmlns:sodipodi="http://sodipodi.sourceforge.net/DTD/sodipodi-0.dtd" xmlns:inkscape="http://www.inkscape.org/namespaces/inkscape" width="100" height="100" id="svg2" version="1.1" inkscape:version="0.48.3.1 r9886" sodipodi:docname="circle2.svg">
  <defs id="defs4"/>
  <sodipodi:namedview id="base" pagecolor="#ffffff" bordercolor="#666666" borderopacity="1.0" inkscape:pageopacity="0.0" inkscape:pageshadow="2" inkscape:zoom="1.979899" inkscape:cx="-8.6607352" inkscape:cy="77.572823" inkscape:document-units="px" inkscape:current-layer="layer1" showgrid="false" showguides="false" inkscape:snap-center="true" inkscape:snap-object-midpoints="true" inkscape:snap-midpoints="true" fit-margin-top="0" fit-margin-left="0" fit-margin-right="0" fit-margin-bottom="0" inkscape:window-width="1553" inkscape:window-height="898" inkscape:window-x="0" inkscape:window-y="0" inkscape:window-maximized="0">
    <inkscape:grid type="xygrid" id="grid2989" empspacing="5" visible="true" enabled="true" snapvisiblegridlinesonly="true" originx="-126.77668px" originy="-830.85302px"/>
  </sodipodi:namedview>
  <metadata id="metadata7">
    <rdf:RDF>
      <cc:Work rdf:about="">
        <dc:format>image/svg+xml</dc:format>
        <dc:type rdf:resource="http://purl.org/dc/dcmitype/StillImage"/>
        <dc:title/>
      </cc:Work>
    </rdf:RDF>
  </metadata>
  <g inkscape:label="Layer 1" inkscape:groupmode="layer" id="layer1" transform="translate(-126.77668,-121.50916)">
    <a id="a2991" transform="matrix(0.31327517,0,0,0.31327517,64.751365,77.273264)">
      <path style="fill:#000000;fill-opacity:1;fill-rule:nonzero;stroke-width:0;stroke-miterlimit:4;stroke-dasharray:none" d="M 50 0 C 22.385762 0 1.5533243e-16 22.385762 0 50 C -4.7369516e-15 77.614238 22.385762 100 50 100 C 77.614238 100 100 77.614238 100 50 C 100 22.385762 77.614238 -1.4055522e-14 50 0 z M 50 14.15625 C 69.7993 14.15625 85.84375 30.2007 85.84375 50 C 85.84375 69.7993 69.7993 85.84375 50 85.84375 C 30.2007 85.84375 14.15625 69.7993 14.15625 50 C 14.15625 30.2007 30.2007 14.15625 50 14.15625 z M 50 30.84375 C 39.426194 30.84375 30.84375 39.426194 30.84375 50 C 30.84375 60.573806 39.426194 69.15625 50 69.15625 C 60.573806 69.15625 69.15625 60.573806 69.15625 50 C 69.15625 39.426194 60.573806 30.84375 50 30.84375 z " transform="matrix(3.1920819,0,0,3.1920819,197.98989,141.2046)" id="path2985"/>
    </a>
    <a id="a2994" transform="matrix(0.31327517,0,0,0.31327517,64.751365,77.273264)"/>
  </g>
</svg>